<svg width="329" height="51" viewBox="0 0 329 51" fill="none" xmlns="http://www.w3.org/2000/svg">
<path d="M12.0085 10.2H19.5755C22.372 10.2 25.8265 10.2 27.8005 12.8323C28.4585 13.6548 28.952 14.8064 29.1165 17.1097C29.1165 21.2226 27.4715 23.6903 23.359 24.3484C22.2075 24.5129 21.385 24.5129 19.2465 24.5129H12.0085V10.2ZM0 1.31613V49.0258H12.0085V33.3968H20.069C26.978 33.2323 33.7225 32.9032 38.164 26.4871C40.796 22.7032 40.9605 18.5903 40.9605 16.9452C40.9605 12.1742 39.3155 8.71935 38.3285 7.23871C37.506 6.0871 36.6835 5.26451 36.19 4.93548C32.571 1.80968 28.294 1.31613 23.688 1.15161L0 1.31613Z" fill="black"/>
<path d="M53.7915 32.9032C54.943 28.9548 56.259 25.0064 57.4105 21.058C58.233 18.2613 58.891 15.4645 59.7135 12.6677L65.9645 32.9032H53.7915ZM66.129 1.3161H53.627L35.861 49.0258H48.5275L50.8305 41.458H68.761L71.064 49.0258H83.7305L66.129 1.3161Z" fill="black"/>
<path d="M99.358 1.3161L109.722 18.9193C112.189 23.1967 114.657 27.6387 116.96 31.9161L116.466 1.3161H127.981V49.0258H116.302L107.419 33.8903C105.938 31.5871 104.458 29.1193 103.142 26.6516C101.661 24.1838 100.51 21.5516 99.029 19.0838L99.358 49.1903H87.843V1.48062L99.358 1.3161Z" fill="black"/>
<path d="M168.941 1.3161V10.6935H156.604V49.0258H144.596V10.6935H132.094V1.3161H168.941Z" fill="black"/>
<path d="M204.967 26.3226C204.803 30.1065 203.816 33.8903 201.184 36.8516C198.223 39.9774 194.439 40.471 192.959 40.471C189.833 40.471 187.037 39.3194 184.898 37.0161C182.924 34.8774 180.95 31.4226 180.95 24.8419C180.95 19.7419 182.595 13.8194 187.366 11.1871C188.188 10.6935 189.998 9.87097 192.63 9.87097C193.452 9.87097 195.262 9.87097 197.236 10.6935C199.868 11.8452 201.184 13.4903 201.842 14.3129C203.322 16.2871 205.132 20.4 204.967 26.3226ZM207.928 45.571C213.85 40.8 216.976 32.9032 216.976 25.6645C216.976 19.0839 214.344 11.3516 209.738 6.58065C207.27 3.94839 201.677 0 192.63 0C181.608 0 176.015 6.0871 173.548 9.70645C169.435 15.7935 168.942 22.7032 168.942 25.171C168.942 27.9677 169.271 37.0161 175.851 43.9258C181.937 50.3419 189.833 50.8355 192.794 50.8355C200.69 50.5065 205.296 47.7097 207.928 45.571Z" fill="black"/>
<path d="M234.413 1.3161L244.776 18.9193C247.244 23.1967 249.711 27.6387 252.014 31.9161L251.521 1.3161H263.036V49.0258H251.356L242.473 33.8903C240.993 31.5871 239.512 29.1193 238.196 26.6516C236.716 24.1838 235.564 21.5516 234.084 19.0838L234.413 49.1903H222.898V1.48062L234.413 1.3161Z" fill="black"/>
<path d="M306.134 1.3161V10.529H282.775V19.2484H304.654V28.2968H282.775V39.6484H308.273V49.0258H270.767V1.3161H306.134Z" fill="black"/>
<path d="M318.308 8.55485V5.75808H320.117C320.775 5.75808 321.598 5.75808 321.927 6.41615C322.091 6.58066 322.091 6.90969 322.091 7.07421C322.091 7.23873 322.091 7.56776 321.927 7.73227C321.598 8.39034 321.104 8.39034 319.788 8.39034H318.308V8.55485ZM324.723 15.4645C324.229 14.4774 323.9 13.1613 323.9 12.8323C323.736 12.0097 323.736 10.8581 323.078 10.2C322.913 10.0355 322.749 9.87098 322.255 9.70647C322.749 9.54195 322.749 9.54195 323.078 9.37743C323.407 9.21292 323.572 9.0484 323.736 8.71937C324.065 8.39034 324.394 7.89679 324.394 6.90969C324.394 6.58066 324.394 5.75808 323.736 4.9355C322.749 3.78389 321.104 3.78389 319.788 3.78389H315.84V15.3H318.308V10.3645H318.966C319.788 10.3645 320.117 10.3645 320.446 10.6936C320.94 11.0226 321.104 11.3516 321.269 12.5032C321.433 13.3258 321.433 14.3129 321.762 15.1355C321.762 15.3 321.927 15.3 321.927 15.4645H324.723ZM329 9.70647C329 7.73227 328.506 5.75808 327.19 4.27744C325.381 1.97421 322.749 0.658081 319.953 0.658081C316.169 0.658081 313.866 2.79679 312.879 3.9484C312.221 4.77098 310.741 6.74518 310.741 9.70647C310.741 13.6549 313.044 15.9581 314.195 16.9452C315.84 18.0968 317.814 18.7549 319.788 18.7549C321.104 18.7549 324.23 18.4258 326.697 15.629C328.836 13.3258 329 10.8581 329 9.70647ZM328.178 9.70647C328.178 13.1613 326.039 16.2871 322.749 17.4387C321.433 17.9323 320.446 17.9323 319.953 17.9323C316.663 17.9323 313.537 15.9581 312.221 12.8323C311.892 11.8452 311.563 10.8581 311.563 9.70647C311.563 5.9226 313.866 3.78389 315.018 2.96131C316.992 1.48066 318.966 1.31615 319.953 1.31615C323.736 1.31615 325.71 3.45485 326.533 4.60647C328.013 6.74518 328.178 8.88389 328.178 9.70647Z" fill="black"/>
</svg>
